<svg id="Capa_1" enable-background="new 0 0 512 512" height="512" viewBox="0 0 512 512" width="512" xmlns="http://www.w3.org/2000/svg"><path d="m283.667 225h85.333v30h-85.333z"/><path d="m379.197 372v53.667h132.803v-71.505l-91.795-47.841z" fill="#bfbfbf"/><path d="m264.268 201h52.798v30h-52.798z" fill="#dfeffe" transform="matrix(.707 -.707 .707 .707 -67.601 268.794)"/><path d="m346.69 103h-112.023v142.333l145.749-20.333z" fill="#9ccefd"/><path d="m378 86.333h-213.411l-15.255 78.093 15.255 90.574h121.514l-36.333-138.667h128.23z" fill="#f90"/><path d="m81 86.333h83.589v168.667h-83.589z" fill="#fdae02"/><path d="m420.334 306.08-36.334-18.628v-49.487l-3.584-12.965h-215.827l-15.255 73.667 15.255 73.666h255.745z" fill="#fdae02"/><path d="m0 225v131.333c0 8.822 7.178 16 16 16h148.589v-147.333z" fill="#fdcb02"/><path d="m192 146.323h-27.411l-10 15 10 15h27.411z" fill="#d8d8d8"/><path d="m0 146.323v51.01h30v-21.01h134.589v-30z" fill="#e7e7e7"/><circle cx="63" cy="362.667" fill="#fcfcfc" r="48"/><path d="m63 425.667c-34.738 0-63-28.262-63-63s28.262-63 63-63 63 28.262 63 63-28.262 63-63 63zm0-96c-18.196 0-33 14.804-33 33s14.804 33 33 33 33-14.804 33-33c0-18.197-14.804-33-33-33z" fill="#444"/><circle cx="267.667" cy="362.667" fill="#e7e7e7" r="48"/><path d="m267.667 425.667c-34.738 0-63-28.262-63-63s28.262-63 63-63 63 28.262 63 63-28.262 63-63 63zm0-96c-18.196 0-33 14.804-33 33s14.804 33 33 33 33-14.804 33-33c0-18.197-14.804-33-33-33z" fill="#292929"/></svg>